# xmcd
#
# Track frame offsets:
#   150
#   13066
#   25695
#   42319
#   58335
#   70133
#   87981
#   96382
#   113210
#   132290
#
# Disc length: 2003 seconds
#
# Revision: 0
# Processed by: cddbd v1.5.2PL0 Copyright (c) Steve Scherf et al.
# Submitted via: uFREEDB ActiveX Control 1.5
#
DISCID=8807d10a
DTITLE=Betto and Menon - 32 dias por mes
DYEAR=2006
DGENRE=Country
TTITLE0=estrelas do mato grosso
TTITLE1=agua e vinho
TTITLE2=vai ser barra
TTITLE3=transgressor
TTITLE4=dimterimbebim
TTITLE5=32 dias por mes
TTITLE6=jeito de cantar
TTITLE7=encontro casual
TTITLE8=caminheiro
TTITLE9=ave maria
EXTD=
EXTT0=
EXTT1=
EXTT2=
EXTT3=
EXTT4=
EXTT5=
EXTT6=
EXTT7=
EXTT8=
EXTT9=
PLAYORDER=
